<?xml version="1.0" encoding="utf-8"?>
<!-- Generator: Adobe Illustrator 21.0.0, SVG Export Plug-In . SVG Version: 6.00 Build 0)  -->
<svg version="1.1" id="图层_1" xmlns="http://www.w3.org/2000/svg" xmlns:xlink="http://www.w3.org/1999/xlink" x="0px" y="0px"
	 width="40px" height="40px" viewBox="0 0 40 40" style="enable-background:new 0 0 40 40;" xml:space="preserve">
<style type="text/css">
	.st0{fill:#00925D;}
	.st1{fill:#12D690;}
	.st2{fill:#51E3A6;}
	.st3{fill:#FFFFFF;}
</style>
<circle class="st0" cx="20" cy="20" r="20"/>
<path class="st1" d="M39.6,20.2C40,12.3,32.7,1,20,1C6.6,1,0.4,12.6,0.4,20.2s9,18.2,20,18.2S39.2,27.7,39.6,20.2z"/>
<path class="st2" d="M39.6,19.2C40,11.3,32.7,0,20,0C6.6,0,0.4,11.6,0.4,19.2s9,18.2,20,18.2S39.2,26.7,39.6,19.2z"/>
<g>
	<path class="st3" d="M20.8,25.7l8.9-8.3l-2.2-2.1l6.1,0.8l0.8,5.8l-2.2-2.1l-8.9,8.3C23.3,28.2,20.8,25.7,20.8,25.7z"/>
	<path class="st3" d="M23.3,27.8L17.5,22l-1.9,1.7l-0.8-5.8l6.1,0.8l-1.7,1.7l5.9,5.8L23.3,27.8z"/>
	<path class="st3" d="M20.8,10.4l-8.9,8.3l2.2,2.1L8,19.5l-0.8-5.8l2.2,2.1l8.9-8.3C18.3,7.5,20.8,10.4,20.8,10.4z"/>
	<path class="st3" d="M18.3,7.9l5.8,5.8l1.7-1.7l0.8,5.8L20.5,17l1.7-1.7l-5.6-5.8L18.3,7.9z"/>
</g>
</svg>
